<?xml version="1.0" standalone="no"?>
<!DOCTYPE svg PUBLIC "-//W3C//DTD SVG 20010904//EN"
 "http://www.w3.org/TR/2001/REC-SVG-20010904/DTD/svg10.dtd">
<svg version="1.0" xmlns="http://www.w3.org/2000/svg"
 width="512.000000pt" height="512.000000pt" viewBox="0 0 512.000000 512.000000"
 preserveAspectRatio="xMidYMid meet">
<metadata>
Created by potrace 1.16, written by Peter Selinger 2001-2019
</metadata>
<g transform="translate(0.000000,512.000000) scale(0.100000,-0.100000)"
stroke="none">
<path d="M3335 3725 c-23 -8 -58 -33 -82 -60 -52 -57 -68 -119 -52 -197 11
-50 21 -62 167 -210 l155 -157 -1074 -3 -1074 -3 -82 -28 c-162 -55 -299 -172
-373 -319 -69 -139 -71 -159 -68 -725 l3 -501 30 -44 c75 -106 221 -127 319
-46 73 60 70 38 76 578 l5 486 26 49 c15 30 42 62 68 80 l43 30 1051 3 1051 2
-156 -157 c-144 -146 -156 -162 -168 -210 -18 -80 0 -142 59 -203 69 -72 162
-89 252 -46 20 9 188 170 386 369 320 322 351 356 363 400 15 55 10 119 -14
168 -9 20 -170 188 -369 385 -297 296 -358 352 -393 362 -54 15 -99 15 -149
-3z"/>
</g>
</svg>
